<svg xmlns="http://www.w3.org/2000/svg" xmlns:xlink="http://www.w3.org/1999/xlink" version="1.1" enable-background="new 0 0 1000 1000" xml:space="preserve" width="1000" height="1000"><rect id="backgroundrect" width="100%" height="100%" x="0" y="0" fill="none" stroke="none"/>
<metadata> Svg Vector Icons : http://www.onlinewebfonts.com/icon </metadata>

<g class="currentLayer"><title>Layer 1</title><g id="svg_1" class="selected" fill="#ffffff" fill-opacity="1"><g transform="translate(0,309) scale(0.10000000149011612,-0.10000000149011612) " id="svg_2" fill="#ffffff" fill-opacity="1"><path d="M8324.8,1007.5c-93.9-24.9-208.8-61.3-252.9-78.5l-82.4-32.6l-80.5,59.4c-65.1,47.9-97.7,59.4-180.1,59.4c-130.3,0-168.6-34.5-155.2-141.8c5.7-44.1,15.3-92,21.1-109.2c9.6-23-9.6-36.4-88.1-59.4c-270.1-84.3-605.3-95.8-1001.9-32.6c-421.4,65.1-795,69-1254.8,9.6c-546-67.1-858.2-88.1-1381.2-88.1c-488.5,0-789.2,19.2-1281.6,78.5c-490.4,59.4-766.3,74.7-1013.4,53.6c-331.4-26.8-590-107.3-741.4-233.7c-30.7-24.9-103.4-67.1-160.9-93.9C531.8,335.1,461,271.9,397.7,155.1C298.1-25,288.5-128.5,288.5-988.6v-787.3l-46-42.1c-72.8-67.1-130.3-226-141.8-375.5c-7.7-132.2,40.2-482.7,70.9-513.4c26.8-26.8,208.8,174.3,273.9,306.5c53.6,109.2,65.1,155.2,70.9,289.3c5.8,141.8,0,170.5-46,264.4l-51.7,105.4l9.6,645.6c9.6,645.6,32.6,883.1,92,954c30.6,36.4,55.6,15.3,55.6-47.9c0-30.7,21.1-157.1,47.9-285.4c80.5-400.4,111.1-666.7,111.1-1000c0-440.6-44.1-676.2-185.8-1005.7c-26.8-63.2-49.8-132.2-49.8-155.2c0-21.1,26.8-111.1,57.5-197.3c124.5-341,272-927.2,304.6-1218.4c32.6-275.8,38.3-291.2,118.8-385c74.7-86.2,74.7-88.1,72.8-241.4c-1.9-84.3,5.8-160.9,15.3-170.5c9.6-9.6,172.4-15.3,375.5-13.4l356.3,5.7l-76.6,162.8c-63.2,136-103.4,187.8-239.5,319.9c-90,88.1-174.3,187.7-189.7,224.1c-38.3,92-70.9,383.1-74.7,662.8c-1.9,214.6,1.9,249,44.1,341l46,101.5l162.8-273.9c249-421.4,362.1-649.4,377.4-766.3c17.2-139.9,74.7-252.9,164.8-323.8c105.4-84.3,139.8-155.2,124.5-266.3c-7.7-49.8-3.8-113,7.7-141.7l19.2-49.8h354.4c243.3,0,354.4,5.8,354.4,21.1c0,11.5-40.2,97.7-90,193.5c-90,176.2-118.8,205-314.2,321.8c-67.1,42.2-91.9,76.6-180.1,258.6c-174.3,360.2-277.8,758.6-277.8,1065.1c0,116.9,3.8,128.3,44.1,139.8c92,24.9,122.6,13.4,139.8-49.8c32.6-109.2,153.3-84.3,137.9,26.8c-7.7,51.7-3.8,55.5,65.1,61.3c13.4,1.9,28.7-19.2,34.5-44.1c13.4-55.5,59.4-88.1,103.4-72.8c21.1,7.7,30.7,34.5,30.7,86.2v72.8l132.2,42.1c72.8,24.9,182,69,241.4,97.7l109.2,55.6l109.2-38.3c362.1-124.5,781.6-205,1160.9-220.3c249-9.6,335.2-3.8,651.3,42.1c394.6,57.5,578.5,57.5,741.4,0l90-30.6l11.5-128.3c5.7-70.9,24.9-176.3,40.2-233.7c17.2-57.5,47.9-164.7,69-239.5c28.7-105.4,40.2-220.3,49.8-530.6c13.4-392.7,13.4-396.6,63.2-450.2c82.4-88.1,99.6-134.1,84.3-245.2c-5.7-55.5-5.7-122.6,1.9-151.3l11.5-49.8h323.7c247.1,0,323.8,5.8,323.8,24.9c0,59.4-120.7,266.3-229.9,396.5c-136,162.8-191.6,262.5-191.6,339.1c0,109.2,141.8,812.2,157.1,783.5c9.6-15.3,42.1-126.5,74.7-245.2c44.1-164.7,61.3-279.7,70.9-478.9l15.3-264.4l69-70.9c99.6-105.4,111.1-137.9,111.1-319.9v-164.8h342.9h342.9l-36.4,97.7c-61.3,162.8-113,249-237.6,409.9c-67,84.3-151.3,210.7-189.7,279.7c-63.2,114.9-69,139.8-69,277.8c0,82.4,21.1,312.3,47.9,511.5l47.9,360.1l101.5,99.6c120.7,118.8,180.1,229.9,348.7,645.6c147.5,367.8,250.9,567.1,432.9,833.3c191.6,281.6,337.2,450.2,388.9,450.2c23,0,118.8-24.9,210.7-57.5c180.1-59.4,496.2-134.1,576.6-134.1c74.7,0,159,49.8,281.6,168.6c137.9,130.3,141.8,166.7,36.4,400.4c-74.7,166.7-97.7,260.5-136,590c-9.6,95.8-24.9,191.6-30.6,214.6c-11.5,38.3-3.8,42.1,105.4,55.6c128.3,13.4,273.9,95.8,413.8,231.8c84.3,80.5,82.4,132.2-5.8,191.6c-153.3,101.5-350.6,99.6-578.5-5.8l-103.4-47.9l-38.3,53.6C8926.3,1024.8,8679.2,1101.4,8324.8,1007.5z" id="svg_3" fill="#ffffff" fill-opacity="1"/></g></g></g></svg>